<?xml version="1.0" encoding="UTF-8" standalone="no"?>
<!-- Created with Inkscape (http://www.inkscape.org/) -->

<svg
   width="512.0px"
   height="512.0px"
   viewBox="0 0 512.0 512.0"
   version="1.1"
   id="SVGRoot"
   sodipodi:docname="icona512_bg.svg"
   inkscape:version="1.2.1 (9c6d41e410, 2022-07-14)"
   xmlns:inkscape="http://www.inkscape.org/namespaces/inkscape"
   xmlns:sodipodi="http://sodipodi.sourceforge.net/DTD/sodipodi-0.dtd"
   xmlns="http://www.w3.org/2000/svg"
   xmlns:svg="http://www.w3.org/2000/svg">
  <sodipodi:namedview
     id="namedview137"
     pagecolor="#505050"
     bordercolor="#ffffff"
     borderopacity="1"
     inkscape:showpageshadow="0"
     inkscape:pageopacity="0"
     inkscape:pagecheckerboard="1"
     inkscape:deskcolor="#505050"
     inkscape:document-units="px"
     showgrid="false"
     inkscape:zoom="0.97324928"
     inkscape:cx="443.36021"
     inkscape:cy="264.57764"
     inkscape:window-width="1848"
     inkscape:window-height="1025"
     inkscape:window-x="72"
     inkscape:window-y="31"
     inkscape:window-maximized="1"
     inkscape:current-layer="layer3">
    <inkscape:grid
       type="xygrid"
       id="grid260" />
  </sodipodi:namedview>
  <defs
     id="defs132" />
  <g
     inkscape:groupmode="layer"
     id="layer6"
     inkscape:label="Livello 6">
    <rect
       style="display:inline;fill:#c1af81;fill-opacity:1;fill-rule:evenodd;stroke:#ffffff;stroke-width:83.1496063;stroke-dasharray:none;stroke-opacity:1"
       id="rect2774"
       width="511.98434"
       height="511.99252"
       x="0.0099176168"
       y="0.0053544641"
       ry="0" />
    <path
       style="display:inline;fill:#0e1400;fill-opacity:1;stroke:#000000;stroke-width:1px;stroke-linecap:butt;stroke-linejoin:miter;stroke-opacity:1"
       d="m 142.05904,318.78709 c 0,0 11.17542,9.18366 14.47332,15.41189 8.65542,16.34613 2.70852,38.22123 12.10644,54.15206 11.18202,18.95514 13.53541,36.00934 23.70004,55.52895 13.63945,26.19245 19.89601,82.5583 19.89601,82.5583 l 86.65957,-20.93972 48.58914,-259.17724 -157.04199,31.43669 z"
       id="path1941"
       sodipodi:nodetypes="csssccccc" />
  </g>
  <g
     inkscape:groupmode="layer"
     id="layer5"
     inkscape:label="Livello 5">
    <path
       style="fill:#172400;fill-opacity:1;stroke:#000000;stroke-width:1px;stroke-linecap:butt;stroke-linejoin:miter;stroke-opacity:1"
       d="m 111.99031,259.03144 c 0,0 -38.654906,11.96696 -63.726365,44.95385 -13.984495,18.3996 -24.144764,64.77066 -21.944351,65.76816 10.27814,-8.72532 26.503531,-24.87316 42.9249,-31.71732 30.674213,-12.78451 77.763946,-22.85421 77.763946,-22.85421 z"
       id="path1938"
       sodipodi:nodetypes="cscccc" />
  </g>
  <g
     inkscape:groupmode="layer"
     id="layer3"
     inkscape:label="Livello 3">
    <path
       style="fill:#dcd3bb;fill-opacity:1;stroke:#000000;stroke-width:1px;stroke-linecap:butt;stroke-linejoin:miter;stroke-opacity:1"
       d="m 156.07608,180.99128 c 0,0 0.18796,30.25944 -7.02143,42.87422 -8.29509,14.51452 -34.4533,28.38786 -37.14057,33.70113 11.21956,22.01879 27.7241,44.59609 28.68712,60.35109 14.35001,4.44292 42.80307,11.06718 45.16163,9.17417 9.81337,-4.47165 23.19949,-22.70625 40.91338,-32.0906 24.51335,-12.98653 78.06207,-18.66815 78.06207,-18.66815 l 3.70497,-104.0164 z"
       id="path1873"
       sodipodi:nodetypes="cscccsccc" />
  </g>
  <g
     inkscape:label="Livello 1"
     inkscape:groupmode="layer"
     id="layer1">
    <path
       style="fill:#182600;fill-opacity:1;stroke:#000000;stroke-width:1px;stroke-linecap:butt;stroke-linejoin:miter;stroke-opacity:1"
       d="m 419.67495,192.65695 c 0,0 20.75765,51.34593 21.3529,96.80395 0.50803,38.79692 -11.54438,122.49998 -18.47213,156.216 -2.04144,9.93526 -6.47651,10.76234 -6.47651,10.76234 0,0 10.7627,5.55625 12.83002,10.73514 1.83142,4.58791 -1.69256,14.72284 -1.69256,14.72284 0,0 7.2728,6.46748 9.11901,10.63951 9.47196,21.40453 18.29752,68.30257 18.29752,68.30257 l -305.39021,-6.10383 c 0,0 -3.99048,-27.67925 17.61428,-71.86171 11.11706,-22.73476 69.27139,-63.92573 77.39181,-78.86415 25.52225,-46.95112 43.38404,-110.38934 41.04314,-160.14099 -1.78028,-37.83663 -16.31669,-66.87803 -16.31669,-66.87803 39.82978,-4.79015 102.69799,11.07394 150.69942,15.66636 z"
       id="path380"
       sodipodi:nodetypes="csscscsccssscc" />
  </g>
  <g
     inkscape:groupmode="layer"
     id="layer2"
     inkscape:label="Livello 2">
    <path
       style="fill:#0e1400;fill-opacity:1;stroke:#000000;stroke-width:1px;stroke-linecap:butt;stroke-linejoin:miter;stroke-opacity:1"
       d="m 422.39215,194.66109 c -50.41994,-3.4431 -97.884,-11.85374 -147.53503,-12.8906 -50.73635,-1.05953 -69.67055,0.56654 -119.71727,1.66514 -14.21291,-13.8878 -38.93772,-58.12816 -32.40381,-64.93651 19.6256,-8.4448 48.24615,-14.41861 48.24615,-14.41861 0,0 4.16811,-21.619014 10.54352,-22.680135 83.88254,-13.961375 132.83586,-5.958187 201.83992,-2.601744 3.87473,0.188472 3.56435,8.629146 3.56435,8.629146 0,0 68.40396,-2.940681 107.82689,1.146534 -45.78945,44.343659 -72.36472,106.086779 -72.36472,106.086779 z"
       id="path587"
       sodipodi:nodetypes="cscccssccc" />
    <path
       style="fill:#0e1400;fill-opacity:1;stroke:#000000;stroke-width:1px;stroke-linecap:butt;stroke-linejoin:miter;stroke-opacity:1"
       d="m 144.8885,231.64331 c 0,0 11.45956,2.23338 15.80291,5.7829 7.11681,5.81609 11.456,13.63098 19.09466,18.74242 9.66798,6.46936 30.88139,7.82118 40.79363,0.64292 20.86699,-15.11148 21.74267,-37.15481 7.27141,-56.17285 -11.3165,-14.87207 -36.8694,-14.72857 -49.27998,-6.09975 -12.41058,8.62883 -13.88996,16.5607 -16.02127,26.40159 -2.91552,2.29435 -12.29904,0.15924 -12.29904,0.15924 0,0 -4.82862,1.64316 -5.91569,3.83849 -1.05457,2.12968 0.55337,6.70504 0.55337,6.70504 z"
       id="path1875"
       sodipodi:nodetypes="csssssccsc" />
  </g>
  <g
     inkscape:groupmode="layer"
     id="layer4"
     inkscape:label="Livello 4">
    <path
       style="fill:#ddd4bb;fill-opacity:1;stroke:#000000;stroke-width:1px;stroke-linecap:butt;stroke-linejoin:miter;stroke-opacity:1"
       d="m 162.05991,124.29681 c -4.83002,2.90376 -6.27985,25.79183 -8.22654,43.94773 -13.72215,-14.12084 -28.02959,-43.01969 -28.02959,-43.01969 -0.003,-0.006 9.10613,28.00171 29.53467,47.30081 2.78062,-13.95972 5.48833,-40.71018 10.09376,-45.09198 12.09668,-5.14756 117.39192,-26.43795 117.39192,-26.43795 0,0 -110.20307,19.04579 -120.76422,23.30108 z"
       id="path1943"
       sodipodi:nodetypes="ccccccc" />
  </g>
</svg>
