<?xml version="1.0" encoding="UTF-8"?>
<svg xmlns="http://www.w3.org/2000/svg" xmlns:xlink="http://www.w3.org/1999/xlink" width="512" height="512" viewBox="0 0 512 512">
<path fill-rule="evenodd" fill="rgb(75.686276%, 68.627453%, 50.588238%)" fill-opacity="1" stroke-width="83.149605" stroke-linecap="butt" stroke-linejoin="miter" stroke="rgb(100%, 100%, 100%)" stroke-opacity="1" stroke-miterlimit="4" d="M 0.0117188 0.00390625 L 511.996094 0.00390625 L 511.996094 511.996094 L 0.0117188 511.996094 Z M 0.0117188 0.00390625 "/>
<path fill-rule="nonzero" fill="rgb(5.490196%, 7.843138%, 0%)" fill-opacity="1" stroke-width="1" stroke-linecap="butt" stroke-linejoin="miter" stroke="rgb(0%, 0%, 0%)" stroke-opacity="1" stroke-miterlimit="4" d="M 142.058594 318.785156 C 142.058594 318.785156 153.234375 327.972656 156.53125 334.199219 C 165.1875 350.546875 159.242188 372.421875 168.640625 388.351562 C 179.820312 407.304688 182.175781 424.359375 192.339844 443.878906 C 205.976562 470.074219 212.234375 526.4375 212.234375 526.4375 L 298.894531 505.5 L 347.484375 246.320312 L 190.441406 277.757812 Z M 142.058594 318.785156 "/>
<path fill-rule="nonzero" fill="rgb(9.019608%, 14.117648%, 0%)" fill-opacity="1" stroke-width="1" stroke-linecap="butt" stroke-linejoin="miter" stroke="rgb(0%, 0%, 0%)" stroke-opacity="1" stroke-miterlimit="4" d="M 111.992188 259.03125 C 111.992188 259.03125 73.335938 271 48.265625 303.984375 C 34.28125 322.386719 24.121094 368.757812 26.320312 369.753906 C 36.597656 361.027344 52.824219 344.878906 69.246094 338.035156 C 99.917969 325.25 147.007812 315.183594 147.007812 315.183594 Z M 111.992188 259.03125 "/>
<path fill-rule="nonzero" fill="rgb(86.274511%, 82.745099%, 73.333335%)" fill-opacity="1" stroke-width="1" stroke-linecap="butt" stroke-linejoin="miter" stroke="rgb(0%, 0%, 0%)" stroke-opacity="1" stroke-miterlimit="4" d="M 156.074219 180.992188 C 156.074219 180.992188 156.265625 211.25 149.054688 223.867188 C 140.757812 238.378906 114.601562 252.253906 111.914062 257.566406 C 123.132812 279.585938 139.636719 302.164062 140.601562 317.917969 C 154.953125 322.359375 183.402344 328.984375 185.761719 327.09375 C 195.578125 322.621094 208.960938 304.386719 226.675781 295 C 251.191406 282.015625 304.738281 276.332031 304.738281 276.332031 L 308.441406 172.316406 Z M 156.074219 180.992188 "/>
<path fill-rule="nonzero" fill="rgb(9.411765%, 14.901961%, 0%)" fill-opacity="1" stroke-width="1" stroke-linecap="butt" stroke-linejoin="miter" stroke="rgb(0%, 0%, 0%)" stroke-opacity="1" stroke-miterlimit="4" d="M 419.675781 192.65625 C 419.675781 192.65625 440.433594 244.003906 441.027344 289.460938 C 441.535156 328.257812 429.484375 411.960938 422.554688 445.675781 C 420.515625 455.613281 416.078125 456.4375 416.078125 456.4375 C 416.078125 456.4375 426.84375 461.996094 428.910156 467.175781 C 430.742188 471.761719 427.214844 481.898438 427.214844 481.898438 C 427.214844 481.898438 434.488281 488.363281 436.335938 492.535156 C 445.808594 513.941406 454.632812 560.839844 454.632812 560.839844 L 149.242188 554.734375 C 149.242188 554.734375 145.253906 527.054688 166.855469 482.875 C 177.972656 460.140625 236.128906 418.949219 244.25 404.007812 C 269.769531 357.058594 287.632812 293.621094 285.292969 243.867188 C 283.511719 206.03125 268.976562 176.992188 268.976562 176.992188 C 308.804688 172.199219 371.671875 188.066406 419.675781 192.65625 Z M 419.675781 192.65625 "/>
<path fill-rule="nonzero" fill="rgb(5.490196%, 7.843138%, 0%)" fill-opacity="1" stroke-width="1" stroke-linecap="butt" stroke-linejoin="miter" stroke="rgb(0%, 0%, 0%)" stroke-opacity="1" stroke-miterlimit="4" d="M 422.390625 194.660156 C 371.972656 191.21875 324.507812 182.808594 274.855469 181.769531 C 224.121094 180.710938 205.1875 182.335938 155.140625 183.4375 C 140.925781 169.546875 116.203125 125.308594 122.734375 118.5 C 142.363281 110.054688 170.980469 104.082031 170.980469 104.082031 C 170.980469 104.082031 175.148438 82.460938 181.527344 81.398438 C 265.410156 67.4375 314.363281 75.441406 383.367188 78.796875 C 387.242188 78.988281 386.929688 87.429688 386.929688 87.429688 C 386.929688 87.429688 455.332031 84.488281 494.757812 88.574219 C 448.96875 132.917969 422.390625 194.660156 422.390625 194.660156 Z M 422.390625 194.660156 "/>
<path fill-rule="nonzero" fill="rgb(5.490196%, 7.843138%, 0%)" fill-opacity="1" stroke-width="1" stroke-linecap="butt" stroke-linejoin="miter" stroke="rgb(0%, 0%, 0%)" stroke-opacity="1" stroke-miterlimit="4" d="M 144.886719 231.644531 C 144.886719 231.644531 156.347656 233.875 160.691406 237.425781 C 167.808594 243.242188 172.148438 251.058594 179.785156 256.167969 C 189.453125 262.636719 210.667969 263.988281 220.578125 256.8125 C 241.445312 241.699219 242.324219 219.65625 227.851562 200.640625 C 216.535156 185.765625 190.980469 185.910156 178.570312 194.539062 C 166.160156 203.167969 164.679688 211.101562 162.550781 220.941406 C 159.632812 223.234375 150.25 221.101562 150.25 221.101562 C 150.25 221.101562 145.421875 222.742188 144.335938 224.9375 C 143.28125 227.066406 144.886719 231.644531 144.886719 231.644531 Z M 144.886719 231.644531 "/>
<path fill-rule="nonzero" fill="rgb(86.666667%, 83.137256%, 73.333335%)" fill-opacity="1" stroke-width="1" stroke-linecap="butt" stroke-linejoin="miter" stroke="rgb(0%, 0%, 0%)" stroke-opacity="1" stroke-miterlimit="4" d="M 162.058594 124.296875 C 157.230469 127.199219 155.78125 150.089844 153.832031 168.246094 C 140.109375 154.125 125.804688 125.226562 125.804688 125.226562 C 125.800781 125.21875 134.910156 153.226562 155.339844 172.527344 C 158.117188 158.566406 160.828125 131.816406 165.433594 127.433594 C 177.527344 122.285156 282.824219 100.996094 282.824219 100.996094 C 282.824219 100.996094 172.621094 120.042969 162.058594 124.296875 Z M 162.058594 124.296875 "/>
</svg>
